# xmcd
#
# Track frame offsets:
#	187
#	13907
#	33142
#	43662
#	52425
#	65575
#	79257
#	95695
#
# Disc length: 1418 seconds
#
# Revision: 6
# Processed by: cddbd v1.5.2PL0 Copyright (c) Steve Scherf et al.
# Submitted via: EasyCDDAExtractor 2011.3.0.0
#
DISCID=6e058808
DTITLE=Elvis Presley - Elvis Country
DYEAR=1994
DGENRE=Rock and Roll
TTITLE0=Whole Lot-Ta Shakin' Goin' On
TTITLE1=Funny How Time Slips Away
TTITLE2=Baby Let's Play House*
TTITLE3=Rip It Up *
TTITLE4=Lovin' Arms**
TTITLE5=You Asked Me To**
TTITLE6=She Thinks I Still Care**
TTITLE7=Paralyzed*
EXTD=RCA/BMG Music. CD 6330-2-R. Made in U.S.A. * Reissue produced by Tony Bro
EXTD=wn and Davis Briggs ** Produced by Felton Jarvis. Re-mastered by Hank Willi
EXTD=ams and Ken Love, Mastermix, Nashville.
EXTT0=
EXTT1=
EXTT2=
EXTT3=
EXTT4=
EXTT5=
EXTT6=
EXTT7=
PLAYORDER=
